# xmcd
#
# Track frame offsets: 
#        150
#        13815
#        27596
#        40123
#        54137
#        67455
#        82693
#        96952
#        110684
#        124892
#        137150
#        151881
#        165472
#        178312
#        191224
#        203842
#        218167
#        231467
#        245843
#        258995
#        271599
#        283613
#        295711
#        308090
#        322214
#
# Disc length: 4463 seconds
#
# Revision: 1
# Processed by: cddbd v1.5.2PL0 Copyright (c) Steve Scherf et al.
# Submitted via: ExactAudioCopyFreeDBPlugin 1.0
#
DISCID=7b116d19
DTITLE=Various Artist - A Short Cut To The Grave [CD1)
DYEAR=2014
DGENRE=Blues
TTITLE0=Papa Charlie Jackson - Four-Eleven-Forty Four
TTITLE1=New Orleans Willie Jackson - Numbers On The Brain
TTITLE2=Charlie 'Dad' Nelson - Coon Can Blues
TTITLE3=Peg Leg Howell - Skin Game Blues
TTITLE4=Walter Beasley - Georgia Skin
TTITLE5=Memphis Jug Band - Snitchin' Gambler Blues
TTITLE6=Jim Jackson - Policy Blues
TTITLE7=Foster and Harris - Alley Crap Game
TTITLE8=Leroy Carr - Gambler's Blues
TTITLE9=Blind Blake - Poker Woman Blues
TTITLE10=Clifford Gibson - Bad Luck Dice
TTITLE11=Mississippi Sheiks - Hitting The Numbers
TTITLE12=Bob Campbell - Dices Blues
TTITLE13=Louisiana Johnny - Policy Blues
TTITLE14=Bumble Bee Slim - Policy Dream Blues (You Better Get On It)
TTITLE15=Cripple Clarence Lofton - Policy Blues (You Can't 3-6-9 Me)
TTITLE16=Kokomo Arnold - Policy Wheel Blues
TTITLE17=Memphis Minnie - I'm A Gamblin' Woman
TTITLE18=Peetie Wheatstraw - Coon Can Shorty
TTITLE19=Red Nelson - Gambling Man
TTITLE20=Roosevelt Sykes - Drunken Gambler
TTITLE21=Washboard Sam - Policy Writer's Blues
TTITLE22=Jimmie Gordon - Number Runner's Blues
TTITLE23=Robert Nighthawk - Good Gamblin'
TTITLE24=Peter Cleighton - Roaming Gambler
EXTD=
EXTT0=
EXTT1=
EXTT2=
EXTT3=
EXTT4=
EXTT5=
EXTT6=
EXTT7=
EXTT8=
EXTT9=
EXTT10=
EXTT11=
EXTT12=
EXTT13=
EXTT14=
EXTT15=
EXTT16=
EXTT17=
EXTT18=
EXTT19=
EXTT20=
EXTT21=
EXTT22=
EXTT23=
EXTT24=
PLAYORDER=
